<svg width="18" height="18" viewBox="0 0 18 18" fill="none" xmlns="http://www.w3.org/2000/svg">
<path d="M8.99977 8.5V17M8.99977 17L11.9998 14M8.99977 17L5.99977 14M4.99977 4.036C5.74807 4.14301 6.44127 4.49049 6.97477 5.026M14.4998 11C16.0188 11 16.9998 9.769 16.9998 8.25C16.9997 7.64862 16.8025 7.06383 16.4384 6.58521C16.0743 6.10659 15.5633 5.76052 14.9838 5.6C14.8946 4.47846 14.4298 3.41977 13.6645 2.5951C12.8991 1.77042 11.878 1.22797 10.7663 1.05543C9.6545 0.882892 8.51703 1.09036 7.53776 1.64429C6.55849 2.19822 5.79467 3.06624 5.36977 4.108C4.4752 3.86002 3.51875 3.97757 2.71085 4.43479C1.90294 4.892 1.30975 5.65143 1.06177 6.546C0.813794 7.44058 0.931342 8.39702 1.38856 9.20493C1.84577 10.0128 2.6052 10.606 3.49977 10.854" stroke="#399CFF" stroke-width="1.66667" stroke-linecap="round" stroke-linejoin="round"/>
</svg>
